# xmcd
#
# Track frame offsets: 
#        150
#        12984
#        27081
#        44149
#        59222
#        70843
#        83763
#        96525
#        110478
#        124981
#        142440
#        159216
#        175520
#        191106
#        201686
#        220477
#        235340
#        251407
#        267970
#        280878
#
# Disc length: 3937 seconds
#
# Revision: 0
# Processed by: cddbd v1.5.2PL0 Copyright (c) Steve Scherf et al.
# Submitted via: ExactAudioCopy v1.1
#
DISCID=400f5f14
DTITLE=Various Artist - MNM Big Hits 2018 Vol. 1 - CD 2
DYEAR=2018
DGENRE=Top 40
TTITLE0=Luis Fonsi and Demi Lovato - Echame La Culpa
TTITLE1=Regi and OT - You Have A Heart
TTITLE2=Dua Lipa - Homesick
TTITLE3=Sam Smith - Too Good At Goodbyes
TTITLE4=Dimitri Vegas and Like Mike Vs. W&W - Crowd Control
TTITLE5=Milo Meskens - Twenty One
TTITLE6=Laura Tesoro - Beast
TTITLE7=Big Shaq - Man's Not Hot
TTITLE8=Angèle - La Loi De Murphy
TTITLE9=James Arthur - Naked
TTITLE10=CamelPhat and Elderbrook - Cola
TTITLE11=Coely Feat. Bhavi - Regulator
TTITLE12=Jax Jones Feat. Ina Wroldsen - Breathe
TTITLE13=James Hype Feat. Kelli-Leigh - More Than Friends
TTITLE14=Logic Feat. Alessia Cara and Khalid - 1-800-273-8255
TTITLE15=Alan Walker Feat. Noah Cyrus and Digital Farm Animals - All Fal
TTITLE15=ls Down
TTITLE16=MC Fioti, Future, J Balvin, Stefflon Don and Juan Magan - Bum b
TTITLE16=um tam tam
TTITLE17=The Magician Feat. Ebenezer - Las Vegas
TTITLE18=One Bit X Noah Cyrus - My Way
TTITLE19=Milow - Don't Turn Around
EXTD=
EXTT0=
EXTT1=
EXTT2=
EXTT3=
EXTT4=
EXTT5=
EXTT6=
EXTT7=
EXTT8=
EXTT9=
EXTT10=
EXTT11=
EXTT12=
EXTT13=
EXTT14=
EXTT15=
EXTT16=
EXTT17=
EXTT18=
EXTT19=
PLAYORDER=
